<svg width="595" height="103" viewBox="0 0 595 103" fill="none" xmlns="http://www.w3.org/2000/svg">
<path d="M-1 40.5C39.5 121.5 149.057 123.446 186 40.5L199.003 40.5537M595 40.5537H541.672M279.477 40.5537L316.51 87.6984H336.261M279.477 40.5537H299.722M279.477 40.5537H207.848M396.008 87.6984H352.556H336.261M299.722 40.5537L308.211 31.3644M299.722 40.5537H308.116M376.257 1H336.261L323.897 14.3843M354.531 40.5537L368.851 24.1729H391.071M354.531 40.5537H371.813M354.531 40.5537H316.51H308.116M458.224 33.7616H426.129L413.29 24.1729H391.071M391.071 24.1729L402.921 8.59111H414.772M458.224 8.59111H426.622M426.622 8.59111L432.054 1H450.324M426.622 8.59111H414.772M414.772 8.59111L434.523 24.1729H469.581M308.211 31.3644V12.1869L319.967 1M308.211 31.3644L323.897 14.3843M323.897 14.3843L328.361 21.3761H333.793M358.481 21.3761H339.224M339.224 21.3761L343.174 10.9883H354.531M339.224 21.3761H333.793M333.793 21.3761L340.705 31.3644H350.087M389.095 40.5537L393.539 33.7616H413.29M389.095 40.5537H474.519M389.095 40.5537H371.813M474.519 40.5537L487.851 25.771H492.295M474.519 40.5537H501.183M515.502 25.771H505.627M505.627 25.771L515.502 18.9789H527.353M505.627 25.771H496.739M496.739 25.771L511.058 35.3597H524.39M496.739 25.771H492.295M492.295 25.771L505.627 11.3878H518.959M541.672 40.5537L552.535 29.3668H580.681M541.672 40.5537H501.183M336.261 87.6984L347.125 72.5162H416.747M371.813 40.5537L400.946 60.5303H421.685M498.714 60.5303H432.054M432.054 60.5303L442.423 48.1448H450.324M432.054 60.5303H421.685M478.469 48.1448H450.324M421.685 60.5303L444.892 78.1097H455.261M483.407 78.1097H455.261M308.116 40.5537L325.398 64.1261H331.817M376.257 64.1261H347.125M331.817 64.1261L339.224 51.7406H365.888M331.817 64.1261H347.125M347.125 64.1261L350.087 60.5303H362.432M455.261 78.1097L464.643 69.32H478.469M450.324 48.1448L455.261 54.9368H467.606M501.183 40.5537L511.058 51.7406H518.959M535.253 51.7406H518.959M518.959 51.7406L522.415 46.5466H529.328M199.003 40.5537L210.26 14.3843H211.868M199.003 40.5537H207.848M279.477 14.3843H250.463M239.206 14.3843L246.041 1H305.541M239.206 14.3843H250.463M239.206 14.3843H227.145M250.463 14.3843L259.307 25.771H271.368M216.492 14.3843H222.723H227.145M216.492 14.3843L227.949 33.7616H265.338M216.492 14.3843H211.868M211.868 14.3843L218.703 1H230.361M227.145 14.3843L230.361 20.125H246.041M207.848 40.5537L218.703 64.1261H222.924M279.477 64.1261H227.145M227.145 64.1261L235.588 51.7406H259.307M227.145 64.1261H222.924M222.924 64.1261L235.588 81.4844H240.814M297.5 81.4844H279.477M246.041 81.4844L256.895 87.6984H291.068M246.041 81.4844H240.814M246.041 81.4844H279.477M240.814 81.4844L246.041 72.5162H265.338M279.477 81.4844L284.635 76.3047H293.48" stroke="#201132"/>
</svg>
